<svg width="14" height="24" viewBox="0 0 14 24" fill="none" xmlns="http://www.w3.org/2000/svg">
<path d="M10.0625 10.4375C10.0625 8.87891 9.21484 7.45703 7.875 6.66406C6.50781 5.87109 4.83984 5.87109 3.5 6.66406C2.13281 7.45703 1.3125 8.87891 1.3125 10.4375C1.3125 12.0234 2.13281 13.4453 3.5 14.2383C4.83984 15.0312 6.50781 15.0312 7.875 14.2383C9.21484 13.4453 10.0625 12.0234 10.0625 10.4375ZM9.21484 14.9219C8.23047 15.6875 7 16.125 5.6875 16.125C2.54297 16.125 0 13.582 0 10.4375C0 7.32031 2.54297 4.75 5.6875 4.75C8.80469 4.75 11.375 7.32031 11.375 10.4375C11.375 11.7773 10.9102 13.0078 10.1445 13.9922L13.8086 17.6289C14.0547 17.9023 14.0547 18.3125 13.8086 18.5586C13.5352 18.832 13.125 18.832 12.8789 18.5586L9.21484 14.9219Z" fill="black"/>
</svg>
