<svg width="20" height="13" viewBox="0 0 20 13" fill="none" xmlns="http://www.w3.org/2000/svg">
<path d="M8.375 0C8.75 0 9.15625 0.1875 9.4375 0.46875L14.8125 5.84375C15.5938 6.625 15.5938 7.90625 14.8125 8.6875L10.6562 12.8438C9.875 13.625 8.59375 13.625 7.8125 12.8438L2.4375 7.46875C2.15625 7.1875 2 6.78125 2 6.40625V1.5C2 0.6875 2.65625 0 3.5 0H8.375ZM3.125 6.75L8.53125 12.1562C8.90625 12.5312 9.5625 12.5312 9.9375 12.1562L14.125 7.96875C14.5 7.59375 14.5 6.9375 14.125 6.5625L8.71875 1.15625C8.625 1.0625 8.5 1 8.375 1H3.5C3.21875 1 3 1.25 3 1.5V6.40625C3 6.53125 3.03125 6.65625 3.125 6.75ZM11.625 0.15625C11.8125 -0.03125 12.125 -0.03125 12.3438 0.15625L16.75 4.375C18.4062 5.9375 18.4062 8.59375 16.75 10.1562L12.8438 13.875C12.6562 14.0625 12.3438 14.0625 12.1562 13.8438C11.9688 13.6562 11.9688 13.3438 12.1562 13.1562L16.0625 9.4375C17.2812 8.25 17.2812 6.28125 16.0625 5.09375L11.625 0.875C11.4375 0.6875 11.4375 0.375 11.625 0.15625ZM5.25 2.5C5.65625 2.5 6 2.84375 6 3.25C6 3.6875 5.65625 4 5.25 4C4.8125 4 4.5 3.6875 4.5 3.25C4.5 2.84375 4.8125 2.5 5.25 2.5Z" fill="black"/>
</svg>
