<svg width="12" height="8" viewBox="0 0 12 8" fill="none" xmlns="http://www.w3.org/2000/svg">
<path d="M5.625 0.8125C4.33594 0.8125 3.30078 1.39844 2.5 2.14062C1.73828 2.84375 1.23047 3.66406 0.957031 4.25C1.23047 4.83594 1.73828 5.67578 2.5 6.37891C3.30078 7.12109 4.33594 7.6875 5.625 7.6875C6.89453 7.6875 7.92969 7.12109 8.73047 6.37891C9.49219 5.67578 10.0195 4.83594 10.2734 4.25C10.0195 3.66406 9.49219 2.84375 8.75 2.14062C7.92969 1.39844 6.89453 0.8125 5.625 0.8125ZM1.85547 1.45703C2.77344 0.597656 4.04297 -0.125 5.625 -0.125C7.1875 -0.125 8.45703 0.597656 9.375 1.45703C10.293 2.31641 10.8984 3.3125 11.1914 4.01562C11.25 4.17188 11.25 4.34766 11.1914 4.50391C10.8984 5.1875 10.293 6.20312 9.375 7.0625C8.45703 7.92188 7.1875 8.625 5.625 8.625C4.04297 8.625 2.77344 7.92188 1.85547 7.0625C0.9375 6.20312 0.332031 5.1875 0.0390625 4.50391C-0.0195312 4.34766 -0.0195312 4.17188 0.0390625 4.01562C0.332031 3.3125 0.9375 2.29688 1.85547 1.45703ZM5.625 5.8125C6.48438 5.8125 7.1875 5.12891 7.1875 4.25C7.1875 3.39062 6.48438 2.6875 5.625 2.6875C5.60547 2.6875 5.58594 2.6875 5.58594 2.6875C5.60547 2.80469 5.625 2.90234 5.625 3C5.625 3.70312 5.05859 4.25 4.375 4.25C4.25781 4.25 4.16016 4.25 4.0625 4.21094C4.0625 4.23047 4.0625 4.25 4.0625 4.25C4.0625 5.12891 4.74609 5.8125 5.625 5.8125ZM5.625 1.75C6.50391 1.75 7.32422 2.23828 7.77344 3C8.22266 3.78125 8.22266 4.73828 7.77344 5.5C7.32422 6.28125 6.50391 6.75 5.625 6.75C4.72656 6.75 3.90625 6.28125 3.45703 5.5C3.00781 4.73828 3.00781 3.78125 3.45703 3C3.90625 2.23828 4.72656 1.75 5.625 1.75Z" fill="#C4BEB5"/>
</svg>
