<svg width="197" height="141" viewBox="0 0 197 141" fill="none" xmlns="http://www.w3.org/2000/svg">
<rect width="197" height="141" fill="#F6F4F1"/>
<path d="M34.2852 76.7597C34.2852 74.1097 36.457 71.9615 39.107 71.9615C41.7309 71.9615 43.8815 74.0887 43.8815 76.7126C43.8815 79.3365 41.7543 81.4636 39.1304 81.4636H34.2852V76.7597Z" fill="black"/>
<path d="M54.0104 81.5237H49.1651C46.5412 81.5237 44.4141 79.3965 44.4141 76.7726C44.4141 74.1487 46.5646 72.0215 49.1886 72.0215C51.8385 72.0215 54.0104 74.1698 54.0104 76.8197V81.5237Z" fill="black"/>
<path d="M54.0104 66.6339C54.0104 69.2839 51.8385 71.4321 49.1886 71.4321C46.5647 71.4321 44.4141 69.305 44.4141 66.681C44.4141 64.0571 46.5412 61.9299 49.1652 61.9299H54.0104V66.6339Z" fill="black"/>
<path d="M34.2852 61.87H39.1304C41.7543 61.87 43.8815 63.9971 43.8815 66.6211C43.8815 69.245 41.7309 71.3721 39.107 71.3721C36.457 71.3721 34.2852 69.2239 34.2852 66.574V61.87Z" fill="black"/>
<path fill-rule="evenodd" clip-rule="evenodd" d="M75.5563 61.6569H75.6052C77.902 61.6569 81.1275 62.2433 83.2289 62.6343C84.7438 62.9275 87.0407 63.3673 88.458 63.5139C85.9167 65.0778 83.3266 67.1303 81.3718 69.2317C80.3456 70.3069 79.5636 71.3331 78.8794 72.2616C78.6288 72.2616 78.323 72.2566 78.0054 72.2514C77.3321 72.2404 76.6057 72.2284 76.2405 72.2616C74.7744 72.3594 74.3345 72.7015 74.2857 72.897C74.2606 73.0222 74.3382 73.0062 74.5908 72.9543C74.8312 72.905 75.23 72.823 75.8495 72.7992C76.4359 72.7503 77.4622 72.7503 78.5374 72.7503C77.6577 73.9721 76.778 75.0472 75.5563 76.3667C72.5264 79.6899 69.8384 81.3515 66.0755 81.1071C64.6583 81.0582 63.9252 80.5207 63.9252 79.6899C63.9252 79.2012 64.2185 78.8591 64.5605 78.4681C65.0492 77.9306 65.2936 77.4907 65.3425 76.7577C65.3913 75.7314 64.7071 74.6563 63.0944 74.6563C61.1397 74.6563 60.0156 76.2201 60.0156 77.8328C60.0156 80.1297 62.6547 81.5958 66.3199 81.5958C70.9136 81.5958 77.9998 78.9568 82.3003 74.1187C82.6294 73.7567 82.892 73.439 83.118 73.1657C83.2276 73.0331 83.3286 72.9109 83.4243 72.7992C85.0859 72.7992 86.0145 72.7015 86.8452 72.4571C86.6009 72.7992 86.3565 73.239 86.1122 73.8255C85.9167 74.3142 85.819 75.1938 86.1122 75.145C86.2028 75.145 86.3494 74.977 86.5521 74.7448C86.6773 74.6013 86.8239 74.4333 86.9919 74.2653C87.779 73.4782 88.4077 73.008 89.1587 72.4463C89.3402 72.3106 89.5288 72.1695 89.7286 72.0173C90.8526 71.1865 90.9503 70.4046 90.1684 70.2091C89.3865 70.0136 88.2136 70.6001 87.2851 71.8707C86.3077 72.2128 84.9882 72.3105 83.7664 72.2616C84.4652 71.4465 85.0307 70.6979 85.6058 69.9366C86.2375 69.1004 86.8808 68.2489 87.7249 67.2769C88.6534 66.1529 89.7286 64.8823 90.7548 63.9049C91.439 64.0026 93.3938 64.1981 94.7133 64.1981C97.3006 64.1981 99.0581 63.8487 99.3248 62.8607H100.426V67.0119H99.0417V71.1631H97.658V73.9306H96.2742V78.0819H94.8905V79.4656H92.123V80.8493H107.344V79.4656H108.728V76.6981H110.112V73.9306H108.728V76.6981H107.344V78.0819H105.96V79.4656H97.658V78.0819H99.0417V73.9306H100.426V69.7794H101.809V67.0119H103.193V64.2444H104.577V62.8607H107.344V61.477H99.0417V61.8014C98.5132 61.2762 97.4055 61.0216 96.2283 61.0216C94.5178 61.0216 92.563 61.5591 90.5105 62.3899C88.2625 61.8524 85.8678 61.2171 84.0597 60.7284C81.0297 59.8976 77.8531 59.4089 75.8006 59.4089C69.6919 59.2623 65.3425 62.4877 64.8538 66.104C64.5605 68.6942 66.1244 71.2354 69.0077 72.2616C69.3987 72.4083 69.8874 72.4571 69.9362 72.3105C69.9661 72.2208 69.9046 72.2043 69.7403 72.1602C69.6362 72.1322 69.4906 72.0932 69.3009 72.0173C66.2221 70.6978 65.6846 68.2543 66.0755 66.3484C66.9552 62.7809 70.9626 61.6569 75.5563 61.6569ZM96.1305 61.5103H96.1794C97.7432 61.5103 98.9161 61.9501 98.8673 62.5365C98.8184 63.0741 97.6455 63.4651 96.3749 63.4651C95.4952 63.4651 94.0291 63.3185 92.1721 62.8298C93.0517 62.2433 94.7133 61.5103 96.1305 61.5103ZM122.582 80.8493V79.4656H125.349V78.0819H126.733V75.3144H128.117V73.9306H129.5V64.2444H128.117V62.8607H126.733V61.477H118.43V62.8607H115.663V64.2444H114.279V65.6282H112.895V68.3957H111.512V78.0819H112.895V79.4656H114.279V80.8493H122.582ZM118.43 62.8607V64.2444H117.047V65.6282H115.663V68.3957H114.279V78.0819H115.663V79.4656H121.198V78.0819H122.582V76.6981H123.965V75.3144H125.349V72.5469H126.733V64.2444H125.349V62.8607H118.43ZM139.187 72.5469H140.57V80.8493H150.262V79.4656H147.495V78.0819H148.878V76.6981H150.262V75.3144H148.878V76.6981H147.495V78.0819H146.111V79.4656H143.338V72.5469H141.954V71.1631H143.338V69.7794H146.105V65.6282H147.489V64.2444H146.105V62.8607H144.722V61.477H133.652V62.8607H135.035V67.0119H133.652V69.7794H132.268V73.9306H130.884V76.6981H129.5V79.4656H126.733V80.8493H135.035V79.4656H132.268V76.6981H133.652V73.9306H135.035V72.5469H133.652V71.1631H135.035V69.7794H136.419V67.0119H137.803V62.8607H143.338V68.3957H141.954V69.7794H139.187V72.5469ZM159.948 75.3144H158.564V79.4656H157.181V80.8493H162.716V79.4656H161.332V64.2444H159.948V61.477H158.564V64.2444H157.181V65.6282H155.797V67.0119H154.413V68.3957H155.797V67.0119H157.181V65.6282H158.564V73.9306H159.948V75.3144ZM153.029 69.7794V71.1631H151.646V72.5469H150.262V73.9306H151.646V72.5469H153.029V71.1631H154.413V69.7794H153.029Z" fill="black"/>
</svg>
