<svg width="14" height="12" viewBox="0 0 14 12" fill="none" xmlns="http://www.w3.org/2000/svg">
<path d="M9.1875 -0.25H13.5625C13.7812 -0.25 14 -0.03125 14 0.1875V4.5625C14 4.80859 13.7812 5 13.5625 5C13.3164 5 13.125 4.80859 13.125 4.5625V1.25391L6.42578 7.95312C6.26172 8.11719 5.96094 8.11719 5.79688 7.95312C5.63281 7.78906 5.63281 7.48828 5.79688 7.32422L12.4961 0.625H9.1875C8.94141 0.625 8.75 0.433594 8.75 0.1875C8.75 -0.03125 8.94141 -0.25 9.1875 -0.25ZM1.75 0.625H5.6875C5.90625 0.625 6.125 0.84375 6.125 1.0625C6.125 1.30859 5.90625 1.5 5.6875 1.5H1.75C1.25781 1.5 0.875 1.91016 0.875 2.375V12C0.875 12.4922 1.25781 12.875 1.75 12.875H11.375C11.8398 12.875 12.25 12.4922 12.25 12V8.0625C12.25 7.84375 12.4414 7.625 12.6875 7.625C12.9062 7.625 13.125 7.84375 13.125 8.0625V12C13.125 12.9844 12.332 13.75 11.375 13.75H1.75C0.765625 13.75 0 12.9844 0 12V2.375C0 1.41797 0.765625 0.625 1.75 0.625Z" fill="black"/>
<a href="https://lumalabs.ai/dream-machine">
<rect fill="black" fill-opacity="0" y="-0.738281" width="14" height="14"/>
</a>
</svg>
