<svg width="147" height="19" viewBox="0 0 147 19" fill="none" xmlns="http://www.w3.org/2000/svg">
<g clip-path="url(#clip0_0_79)">
<path d="M5.56553 0.0664411C4.55472 0.114131 3.86445 0.275442 3.26101 0.512564C2.63647 0.755955 2.10713 1.08257 1.58045 1.61115C1.05376 2.13973 0.72943 2.66946 0.487748 3.29494C0.253857 3.89972 0.095396 4.59056 0.0507457 5.60194C0.00609545 6.61331 -0.00378462 6.9384 0.00115541 9.51824C0.00609544 12.0981 0.0174955 12.4215 0.0665158 13.4349C0.114776 14.4455 0.275517 15.1356 0.512639 15.7393C0.75641 16.3638 1.08264 16.8929 1.61142 17.4198C2.14019 17.9467 2.66953 18.2703 3.29654 18.5123C3.90074 18.7458 4.59177 18.9051 5.60296 18.9493C6.61415 18.9936 6.93962 19.0039 9.51869 18.9989C12.0978 18.994 12.4225 18.9826 13.4358 18.9345C14.449 18.8864 15.1355 18.7246 15.7393 18.4886C16.3639 18.2442 16.8934 17.9186 17.4199 17.3896C17.9464 16.8606 18.2705 16.3305 18.512 15.7047C18.7461 15.1005 18.9051 14.4094 18.949 13.399C18.9933 12.385 19.0037 12.0612 18.9988 9.48176C18.9939 6.9023 18.9823 6.57892 18.9342 5.56584C18.8861 4.55275 18.7252 3.86475 18.4883 3.26074C18.2441 2.63621 17.9183 2.10743 17.3897 1.58018C16.8611 1.05293 16.3306 0.728975 15.7049 0.488054C15.1004 0.254162 14.4097 0.0947513 13.3985 0.051051C12.3873 0.00735078 12.0619 -0.00385929 9.48183 0.00108074C6.90181 0.00602077 6.57881 0.0170408 5.56553 0.0664411ZM5.67649 17.2403C4.75023 17.2 4.2473 17.0461 3.91214 16.9173C3.4683 16.7463 3.15213 16.5395 2.81811 16.2088C2.48409 15.878 2.27889 15.5607 2.10561 15.1178C1.97546 14.7826 1.81871 14.2802 1.77539 13.354C1.72827 12.3529 1.71839 12.0523 1.71288 9.51596C1.70737 6.97963 1.71706 6.67943 1.76095 5.67794C1.80047 4.75244 1.95532 4.24894 2.08395 3.91397C2.25495 3.46955 2.46091 3.15396 2.79246 2.82013C3.12401 2.4863 3.44037 2.28071 3.88364 2.10743C4.21842 1.97671 4.72078 1.82129 5.64666 1.77721C6.64854 1.72971 6.94874 1.72021 9.48468 1.7147C12.0206 1.70919 12.3216 1.71869 13.3238 1.76277C14.2493 1.80305 14.753 1.95638 15.0876 2.08577C15.5317 2.25677 15.8476 2.46217 16.1815 2.79429C16.5153 3.12641 16.7211 3.44162 16.8943 3.88585C17.0253 4.21968 17.1807 4.72185 17.2244 5.6483C17.2721 6.65017 17.2829 6.95056 17.2875 9.48632C17.292 12.0221 17.2831 12.3232 17.2392 13.3243C17.1987 14.2506 17.0452 14.7537 16.9162 15.0893C16.7452 15.5329 16.539 15.8493 16.2073 16.1829C15.8756 16.5166 15.5596 16.7221 15.1161 16.8954C14.7817 17.0259 14.2788 17.1817 13.3537 17.2258C12.3518 17.2729 12.0516 17.2828 9.5147 17.2883C6.97781 17.2938 6.67856 17.2836 5.67668 17.2403M13.4211 4.4226C13.4215 4.64809 13.4887 4.8684 13.6143 5.05567C13.7399 5.24294 13.9182 5.38876 14.1267 5.47469C14.3352 5.56061 14.5645 5.58278 14.7855 5.5384C15.0066 5.49401 15.2096 5.38506 15.3687 5.22532C15.5279 5.06559 15.6361 4.86224 15.6797 4.641C15.7232 4.41977 15.7002 4.19058 15.6135 3.98242C15.5268 3.77426 15.3804 3.59648 15.1926 3.47158C15.0049 3.34667 14.7843 3.28024 14.5589 3.28069C14.2566 3.2813 13.9669 3.40193 13.7535 3.61607C13.5402 3.83021 13.4206 4.12032 13.4211 4.4226ZM4.62217 9.5095C4.62749 12.2037 6.81555 14.3828 9.50919 14.3777C12.2028 14.3726 14.3835 12.1847 14.3784 9.4905C14.3732 6.79628 12.1846 4.61659 9.49057 4.62191C6.79655 4.62723 4.61704 6.81566 4.62217 9.5095ZM6.33332 9.50608C6.33209 8.87976 6.5166 8.26713 6.86354 7.74568C7.21047 7.22422 7.70425 6.81735 8.28242 6.57652C8.86059 6.3357 9.49719 6.27172 10.1117 6.3927C10.7262 6.51367 11.2911 6.81416 11.7349 7.25616C12.1786 7.69816 12.4813 8.26182 12.6047 8.87586C12.7281 9.48991 12.6667 10.1268 12.4282 10.7059C12.1896 11.285 11.7847 11.7804 11.2646 12.1294C10.7446 12.4784 10.1327 12.6653 9.50634 12.6666C9.09047 12.6674 8.67849 12.5864 8.29394 12.428C7.9094 12.2696 7.55982 12.0371 7.26516 11.7436C6.97051 11.4501 6.73656 11.1014 6.57667 10.7175C6.41679 10.3336 6.3341 9.92196 6.33332 9.50608Z" fill="white"/>
</g>
<g clip-path="url(#clip1_0_79)">
<path d="M56.7794 1.58333H59.4374L53.6318 8.30374L60.4866 17.4168H55.1007L50.9039 11.8927L46.0775 17.4168H43.4195L49.6448 10.2389L43.0698 1.58333H48.5956L52.4077 6.65003L56.7794 1.58333ZM55.8351 15.7982H57.304L47.7912 3.09631H46.1824L55.8351 15.7982Z" fill="white"/>
</g>
<path d="M100.777 16.1346H97.9569V11.762C97.9569 10.7193 97.9381 9.37698 96.4902 9.37698C95.0215 9.37698 94.7968 10.513 94.7968 11.686V16.1343H91.9768V7.14237H94.684V8.37122H94.7219C94.9928 7.91256 95.3843 7.53524 95.8546 7.27946C96.325 7.02367 96.8566 6.899 97.3929 6.91871C100.251 6.91871 100.778 8.78015 100.778 11.2018L100.777 16.1346ZM88.795 5.91324C88.4713 5.91329 88.1549 5.81832 87.8858 5.64032C87.6166 5.46233 87.4068 5.2093 87.2829 4.91325C87.159 4.61719 87.1265 4.29141 87.1896 3.97708C87.2527 3.66276 87.4085 3.37401 87.6373 3.14737C87.8662 2.92072 88.1577 2.76635 88.4752 2.70377C88.7926 2.64119 89.1216 2.67322 89.4207 2.79581C89.7197 2.91839 89.9753 3.12603 90.1552 3.39246C90.335 3.65889 90.4311 3.97215 90.4311 4.29262C90.4312 4.5054 90.3889 4.71611 90.3067 4.91271C90.2245 5.10931 90.104 5.28796 89.9521 5.43845C89.8001 5.58894 89.6197 5.70832 89.4212 5.78978C89.2227 5.87125 89.0099 5.9132 88.795 5.91324ZM90.205 16.1346H87.3821V7.14237H90.205V16.1346ZM102.183 0.0796425H85.9651C85.597 0.0755294 85.2423 0.216283 84.9789 0.470973C84.7156 0.725662 84.5652 1.07345 84.5607 1.43792V17.5624C84.565 17.927 84.7154 18.2751 84.9787 18.53C85.242 18.785 85.5968 18.926 85.9651 18.9221H102.183C102.552 18.9267 102.907 18.7861 103.172 18.5311C103.436 18.2762 103.588 17.9278 103.593 17.5624V1.43675C103.587 1.07156 103.436 0.72338 103.172 0.468697C102.907 0.214013 102.551 0.0736622 102.183 0.0784786" fill="white"/>
<g clip-path="url(#clip2_0_79)">
<path d="M146.666 9.50026C146.666 4.25352 142.413 0.000202783 137.166 0.000202783C131.919 0.000202783 127.666 4.25352 127.666 9.50026C127.666 14.242 131.14 18.1722 135.681 18.8849V12.2464H133.269V9.50026H135.681V7.40728C135.681 5.02633 137.1 3.71116 139.27 3.71116C140.309 3.71116 141.396 3.89671 141.396 3.89671V6.23462H140.198C139.018 6.23462 138.65 6.96692 138.65 7.7182V9.50026H141.285L140.864 12.2464H138.65V18.8849C143.192 18.1722 146.666 14.242 146.666 9.50026Z" fill="white"/>
<path d="M140.863 12.2465L141.284 9.50043H138.649V7.71837C138.649 6.96709 139.017 6.23479 140.197 6.23479H141.395V3.89688C141.395 3.89688 140.308 3.71133 139.269 3.71133C137.099 3.71133 135.681 5.0265 135.681 7.40745V9.50043H133.268V12.2465H135.681V18.8851C136.164 18.961 136.66 19.0005 137.165 19.0005C137.67 19.0005 138.166 18.961 138.649 18.8851V12.2465H140.863Z" fill="black"/>
</g>
<defs>
<clipPath id="clip0_0_79">
<rect width="18.9435" height="18.9435" fill="white" transform="scale(1.00299)"/>
</clipPath>
<clipPath id="clip1_0_79">
<rect width="17.3649" height="15.7862" fill="white" transform="translate(43.0718 1.58333) scale(1.00299)"/>
</clipPath>
<clipPath id="clip2_0_79">
<rect width="18.9435" height="18.9435" fill="white" transform="translate(127.664) scale(1.00299)"/>
</clipPath>
</defs>
</svg>
