<svg width="20" height="13" viewBox="0 0 20 13" fill="none" xmlns="http://www.w3.org/2000/svg">
<path d="M6.5 -1C6.75 -1 7 -0.75 7 -0.5V1H13V-0.5C13 -0.75 13.2188 -1 13.5 -1C13.75 -1 14 -0.75 14 -0.5V1H15C16.0938 1 17 1.90625 17 3V4V5V13C17 14.125 16.0938 15 15 15H5C3.875 15 3 14.125 3 13V5V4V3C3 1.90625 3.875 1 5 1H6V-0.5C6 -0.75 6.21875 -1 6.5 -1ZM16 5H4V13C4 13.5625 4.4375 14 5 14H15C15.5312 14 16 13.5625 16 13V5ZM15 2H5C4.4375 2 4 2.46875 4 3V4H16V3C16 2.46875 15.5312 2 15 2Z" fill="black"/>
</svg>
