<svg width="146" height="55" viewBox="0 0 146 55" fill="none" xmlns="http://www.w3.org/2000/svg">
<path d="M0 32.6967V31.8385C1.30787 31.8385 2.2479 31.7567 2.82009 31.5932C3.41954 31.4297 3.80099 31.1436 3.96448 30.7349C4.15521 30.3263 4.25057 29.6723 4.25057 28.7732V3.9236C4.25057 3.02445 4.15521 2.37051 3.96448 1.96181C3.80099 1.55309 3.41954 1.26699 2.82009 1.10351C2.2479 0.940025 1.30787 0.858286 0 0.858286V0H9.56383C12.561 0 15.2721 0.653938 17.6971 1.96181C20.1494 3.26967 22.0839 5.17698 23.5008 7.68373C24.9177 10.1905 25.6261 13.174 25.6261 16.6345C25.6261 19.9042 24.9722 22.7515 23.6643 25.1765C22.3837 27.6015 20.5717 29.4679 18.2285 30.7758C15.9124 32.0564 13.2149 32.6967 10.136 32.6967H0ZM9.76818 31.3071C12.6837 31.3071 15.1223 30.6668 17.0841 29.3862C19.0731 28.0783 20.5444 26.3345 21.4981 24.1547C22.4517 21.975 22.9286 19.5227 22.9286 16.7979C22.9286 13.7735 22.3564 11.1033 21.212 8.78724C20.0949 6.44398 18.5418 4.63204 16.5527 3.35142C14.5909 2.04355 12.3839 1.38961 9.93168 1.38961C9.03247 1.38961 8.26955 1.45773 7.64286 1.59396C7.07067 1.70295 6.78457 2.0708 6.78457 2.69748V29.5497C6.78457 30.2309 7.01618 30.6941 7.47938 30.9393C7.96983 31.1845 8.73276 31.3071 9.76818 31.3071ZM36.0354 10.5039C36.6076 10.5039 37.0571 10.6537 37.3841 10.9534C37.7383 11.2259 37.9155 11.6073 37.9155 12.0978C37.9155 12.6427 37.7656 13.0923 37.4658 13.4465C37.1661 13.7735 36.8256 13.9369 36.4441 13.9369C36.1716 13.9369 35.9537 13.8825 35.7902 13.7735C35.6267 13.6645 35.436 13.501 35.218 13.283C35 13.065 34.8228 12.9152 34.6866 12.8335C34.5504 12.7517 34.3733 12.7108 34.1553 12.7108C33.6649 12.7108 33.1472 13.0515 32.6022 13.7326C32.0845 14.3866 31.5532 15.3811 31.0083 16.7162V28.6914C31.0083 29.6178 31.09 30.299 31.2535 30.7349C31.4443 31.1436 31.812 31.4297 32.357 31.5932C32.9292 31.7295 33.8284 31.7975 35.0545 31.7975V32.6967H26.1446V31.8385C26.9347 31.8385 27.5069 31.7567 27.8612 31.5932C28.2426 31.4297 28.4878 31.1436 28.5968 30.7349C28.7331 30.3263 28.8012 29.6723 28.8012 28.7732V15.1631C28.8012 14.1549 28.7603 13.4874 28.6786 13.1604C28.5968 12.8062 28.3789 12.6291 28.0246 12.6291C27.7249 12.6291 27.1936 12.779 26.4307 13.0787L26.1037 12.3021L30.5178 10.5039L31.0083 10.9534V14.5909H31.1309C31.7303 13.3648 32.4523 12.3838 33.297 11.6482C34.1689 10.8853 35.0817 10.5039 36.0354 10.5039ZM50.4006 24.073C50.0736 27.1791 49.3242 29.5088 48.1526 31.0619C46.9811 32.5877 45.5369 33.3506 43.8203 33.3506C42.458 33.3506 41.2728 32.8874 40.2646 31.961C39.2564 31.0074 38.4798 29.6996 37.9349 28.0375C37.4172 26.3481 37.1584 24.4271 37.1584 22.2747C37.1584 20.0949 37.4309 18.1195 37.9758 16.3484C38.5208 14.5501 39.3109 13.1332 40.3463 12.0978C41.3816 11.0351 42.5942 10.5039 43.9838 10.5039C45.9184 10.5039 47.4306 11.4303 48.5205 13.283C49.6104 15.1358 50.1553 17.6154 50.1553 20.7216H39.5289V21.4981C39.5289 24.2773 39.9785 26.6069 40.8776 28.487C41.7768 30.3398 43.0029 31.2663 44.556 31.2663C45.6459 31.2663 46.6404 30.7213 47.5396 29.6314C48.4387 28.5143 49.1063 26.6614 49.5422 24.073H50.4006ZM44.0247 11.8934C42.7713 11.8934 41.7631 12.5882 41.0002 13.9779C40.2646 15.3675 39.8014 17.1522 39.6107 19.332H47.7439C47.7439 17.2339 47.4443 15.4765 46.8448 14.0596C46.2454 12.6155 45.3053 11.8934 44.0247 11.8934ZM66.7754 28.3644C66.7209 31.6885 65.7401 33.3506 63.8327 33.3506C62.9063 33.3506 62.1842 32.9828 61.6665 32.2472C61.1761 31.4842 60.9308 30.3534 60.9308 28.8549V27.2201C60.3859 29.2364 59.6094 30.7621 58.6012 31.7975C57.5931 32.8329 56.4214 33.3506 55.0863 33.3506C53.7784 33.3506 52.7567 32.9011 52.021 32.0019C51.2853 31.0755 50.9175 29.9448 50.9175 28.6097C50.9175 27.0566 51.3943 25.7078 52.348 24.5634C53.3289 23.3918 54.4324 22.4517 55.6585 21.7433C56.8846 21.0349 58.6421 20.1221 60.9308 19.005V16.6754C60.9308 14.9588 60.6311 13.7326 60.0317 12.997C59.4596 12.234 58.6012 11.8526 57.4568 11.8526C56.5577 11.8526 55.8084 12.0705 55.209 12.5065C54.6368 12.9152 54.3506 13.4874 54.3506 14.2231C54.3506 14.4956 54.446 14.8906 54.6368 15.4083C54.8275 15.7898 54.9228 16.1304 54.9228 16.4301C54.9228 16.8661 54.8002 17.2203 54.555 17.4928C54.3098 17.738 53.9691 17.8606 53.5332 17.8606C52.9883 17.8606 52.566 17.6563 52.2662 17.2476C51.9938 16.8389 51.8575 16.2939 51.8575 15.6127C51.8575 14.6591 52.1164 13.8007 52.6341 13.0378C53.1791 12.2476 53.9011 11.621 54.8002 11.1578C55.7267 10.6946 56.7484 10.4629 57.8655 10.4629C59.4731 10.4629 60.7538 10.9806 61.7074 12.0161C62.6883 13.0242 63.1788 14.5636 63.1788 16.6345V29.1819C63.1788 30.2173 63.2741 30.9393 63.4648 31.348C63.6828 31.7295 63.9826 31.9202 64.364 31.9202C65.3722 31.9202 65.8899 30.7349 65.9171 28.3644H66.7754ZM55.7812 31.2663C56.7893 31.2663 57.743 30.7621 58.6421 29.7541C59.5685 28.7187 60.3314 27.1519 60.9308 25.0538V20.1902C59.2143 21.1166 57.8655 21.8932 56.8846 22.5199C55.9037 23.1466 55.059 23.9231 54.3506 24.8495C53.6422 25.7759 53.288 26.8386 53.288 28.0375C53.288 28.9911 53.4924 29.7676 53.9011 30.3671C54.337 30.9665 54.9637 31.2663 55.7812 31.2663ZM89.621 28.7732C89.621 29.6723 89.6755 30.3263 89.7845 30.7349C89.9207 31.1436 90.1659 31.4297 90.5201 31.5932C90.8744 31.7567 91.4466 31.8385 92.2367 31.8385V32.6967H84.8391V31.8385C85.602 31.8385 86.1605 31.7567 86.5148 31.5932C86.869 31.4297 87.1006 31.1436 87.2096 30.7349C87.3186 30.3263 87.3731 29.6723 87.3731 28.7732V16.1032C87.3731 13.7326 86.5148 12.5473 84.7982 12.5473C83.9808 12.5473 83.2042 12.8062 82.4686 13.3239C81.7329 13.8416 80.9836 14.6046 80.2207 15.6127V28.7732C80.2207 29.6723 80.2752 30.3263 80.3842 30.7349C80.4932 31.1436 80.7247 31.4297 81.0789 31.5932C81.4331 31.7567 81.9918 31.8385 82.7547 31.8385V32.6967H75.4388V31.8385C76.2017 31.8385 76.7603 31.7567 77.1145 31.5932C77.4687 31.4297 77.7003 31.1436 77.8093 30.7349C77.9182 30.3263 77.9728 29.6723 77.9728 28.7732V16.1032C77.9728 13.7326 77.1145 12.5473 75.3979 12.5473C74.5805 12.5473 73.7903 12.8335 73.0273 13.4057C72.2644 13.9506 71.4879 14.7408 70.6977 15.7762V28.7732C70.6977 29.6723 70.7522 30.3263 70.8612 30.7349C70.9702 31.1436 71.2019 31.4297 71.5561 31.5932C71.9102 31.7567 72.4688 31.8385 73.2318 31.8385V32.6967H65.7932V31.8385C66.6106 31.8385 67.1965 31.7567 67.5507 31.5932C67.9049 31.4297 68.1365 31.1436 68.2455 30.7349C68.3817 30.3263 68.4499 29.6723 68.4499 28.7732V15.204C68.4499 14.1959 68.4089 13.5282 68.3272 13.2013C68.2727 12.8743 68.082 12.7108 67.755 12.7108C67.428 12.7108 66.8831 12.8743 66.1202 13.2013L65.7524 12.3838L68.8586 11.0351L70.1255 10.5039L70.6977 10.9534V14.3866H70.8204C71.6377 13.1332 72.4688 12.1795 73.3135 11.5256C74.1854 10.8444 75.1799 10.5039 76.297 10.5039C77.4142 10.5039 78.2861 10.8444 78.9128 11.5256C79.5395 12.2068 79.9345 13.1604 80.098 14.3866H80.2207C81.0381 13.1332 81.8691 12.1795 82.7138 11.5256C83.5857 10.8444 84.5802 10.5039 85.6973 10.5039C87.0325 10.5039 88.0134 10.9943 88.6401 11.9751C89.294 12.9288 89.621 14.2639 89.621 15.9805V28.7732Z" fill="black"/>
<path d="M29.9926 54.7585V40.3719H35.8881L40.3148 48.2393L44.6408 40.3719H50.4759V54.7585H45.9888V45.1205L40.7574 54.7585H39.2483L34.037 45.1205V54.7585H29.9926ZM51.0204 54.7585L57.3586 40.3719H63.3747L69.6525 54.7585H64.743L63.6364 52.0623H56.4933L55.3464 54.7585H51.0204ZM60.095 43.5108L57.7006 49.2051H62.4492L60.095 43.5108ZM78.1389 55C71.7203 55 68.3399 52.0623 68.3399 47.6558V47.4948C68.3399 43.0883 72.5251 40.1708 77.998 40.1708C82.9679 40.1708 86.2879 41.8811 86.791 45.6437H82.0021C81.7204 44.1749 80.4729 43.3298 78.0181 43.3298C75.1006 43.3298 73.2092 44.8791 73.2092 47.4747V47.6356C73.2092 50.2313 75 51.7806 78.0785 51.7806C80.5132 51.7806 82.0826 51.016 82.4247 49.3862H87.0123C86.5495 53.0885 83.1289 55 78.1389 55ZM87.7699 54.7585V40.3719H92.418V45.9053H99.8227V40.3719H104.471V54.7585H99.8227V49.0643H92.418V54.7585H87.7699ZM106.474 54.7585V40.3719H111.162V54.7585H106.474ZM113.169 54.7585V40.3719H118.622L125.704 49.185V40.3719H129.688V54.7585H124.98L117.173 44.9193V54.7585H113.169ZM131.616 54.7585V40.3719H145.399V43.4103H136.224V45.9656H144.071V49.0039H136.224V51.7203H145.821V54.7585H131.616Z" fill="black"/>
</svg>
