<svg width="20" height="13" viewBox="0 0 20 13" fill="none" xmlns="http://www.w3.org/2000/svg">
<path d="M12.6562 -0.96875C12.9062 -0.875 13.0625 -0.59375 12.9688 -0.34375L7.96875 14.6562C7.875 14.9375 7.59375 15.0625 7.34375 15C7.0625 14.9062 6.9375 14.625 7 14.3438L12 -0.65625C12.0938 -0.90625 12.375 -1.0625 12.6562 -0.96875ZM5.375 2.6875H5.34375C5.53125 2.875 5.53125 3.21875 5.3125 3.375L1.25 7L5.3125 10.6562C5.53125 10.8125 5.53125 11.1562 5.375 11.3438C5.1875 11.5625 4.875 11.5625 4.65625 11.375L0.15625 7.375C0.0625 7.28125 0 7.15625 0 7C0 6.875 0.0625 6.75 0.15625 6.65625L4.65625 2.65625C4.875 2.46875 5.1875 2.46875 5.375 2.6875ZM14.625 2.6875C14.8125 2.46875 15.125 2.4375 15.3125 2.625L19.8125 6.625C19.9375 6.71875 20 6.875 20 7C20 7.15625 19.9375 7.28125 19.8125 7.375L15.3125 11.375C15.125 11.5625 14.8125 11.5625 14.625 11.3438C14.4375 11.125 14.4375 10.8125 14.6562 10.625L18.7188 7L14.6562 3.375C14.4375 3.21875 14.4375 2.875 14.625 2.6875Z" fill="black"/>
</svg>
