<svg width="197" height="141" viewBox="0 0 197 141" fill="none" xmlns="http://www.w3.org/2000/svg">
<rect width="197" height="141" fill="#F6F4F1"/>
<path d="M88.65 57H84.5383V61.3245H88.65V57ZM141.325 79.0052V68.6758C141.325 62.6378 137.563 59.9441 129.125 59.9441C122.035 59.9441 117.803 63.1471 117.803 68.512H121.949C121.949 65.3006 124.162 63.8705 129.125 63.8705C135.121 63.8705 137.248 65.2059 137.248 68.9708C135.783 69.1684 134.392 69.3439 133.033 69.5137C122.843 70.7937 116.694 71.5673 116.694 77.4914C116.694 79.815 117.579 81.4624 119.403 82.5254C121.034 83.4769 123.942 84 127.588 84C132.5 84 136.589 82.8005 137.761 81.0171C137.655 82.6393 137.761 83.6466 137.761 83.6551H141.5C141.494 83.6384 141.325 81.7907 141.325 79.0052ZM137.248 74.1411C137.248 76.6593 136.359 78.3874 134.53 79.4198C132.895 80.3436 130.438 80.7749 126.803 80.7749C124.575 80.7749 120.839 80.3436 120.839 77.458C120.839 76.0501 121.814 75.1903 124.202 74.4947C126.777 73.7432 131.104 73.1615 137.251 72.4715V74.1411H137.248ZM121.046 77.4081H120.943V77.5053H121.046V77.4081ZM70.2601 57H55.5V83.6551H59.6115V74.1719H70.2601C80.2064 74.1719 81.2815 68.167 81.2815 65.5873C81.2785 63.0052 80.2032 57 70.2601 57ZM69.5175 70.2151H59.6115V60.9571H69.5204C74.6699 60.9571 76.866 62.3401 76.866 65.5846C76.8633 68.8292 74.6669 70.2151 69.5175 70.2151ZM116.16 60.1056H110.466L96.2766 71.1611V57H92.1651V83.6551H96.2766V72.402L110.598 83.6551H116.562L101.265 71.4893L116.16 60.1056ZM88.65 63.1943H84.5383V83.6551H88.65V63.1943Z" fill="black"/>
</svg>
