<svg width="20" height="13" viewBox="0 0 20 13" fill="none" xmlns="http://www.w3.org/2000/svg">
<path d="M10 14C10.5 14 11.25 13.5625 11.9062 12.2188C12.2188 11.5938 12.5 10.8438 12.6875 10H7.3125C7.46875 10.8438 7.75 11.5938 8.0625 12.2188C8.71875 13.5625 9.46875 14 10 14ZM7.125 9H12.8438C12.9375 8.375 13 7.71875 13 7C13 6.3125 12.9375 5.65625 12.8438 5H7.125C7.03125 5.65625 7 6.3125 7 7C7 7.71875 7.03125 8.375 7.125 9ZM7.3125 4H12.6875C12.5 3.15625 12.2188 2.4375 11.9062 1.8125C11.25 0.46875 10.5 0 10 0C9.46875 0 8.71875 0.46875 8.0625 1.8125C7.75 2.4375 7.46875 3.15625 7.3125 4ZM13.875 5C13.9375 5.65625 14 6.3125 14 7C14 7.71875 13.9375 8.375 13.875 9H16.6875C16.875 8.375 17 7.71875 17 7C17 6.3125 16.875 5.65625 16.6875 5H13.875ZM16.3125 4C15.5 2.3125 14.0312 1 12.2188 0.375C12.875 1.25 13.4062 2.53125 13.6875 4H16.3125ZM6.28125 4C6.59375 2.53125 7.09375 1.25 7.75 0.375C5.9375 1 4.46875 2.3125 3.65625 4H6.28125ZM3.28125 5C3.09375 5.65625 3 6.3125 3 7C3 7.71875 3.09375 8.375 3.28125 9H6.125C6.03125 8.375 6 7.71875 6 7C6 6.3125 6.03125 5.65625 6.125 5H3.28125ZM12.2188 13.6562C14.0312 13.0312 15.5 11.7188 16.3125 10H13.6875C13.4062 11.5 12.875 12.75 12.2188 13.6562ZM7.75 13.6562C7.09375 12.75 6.59375 11.5 6.28125 10H3.65625C4.46875 11.7188 5.9375 13.0312 7.75 13.6562ZM10 15C7.125 15 4.5 13.5 3.0625 11C1.625 8.53125 1.625 5.5 3.0625 3C4.5 0.53125 7.125 -1 10 -1C12.8438 -1 15.4688 0.53125 16.9062 3C18.3438 5.5 18.3438 8.53125 16.9062 11C15.4688 13.5 12.8438 15 10 15Z" fill="black"/>
</svg>
