<svg preserveAspectRatio="none" width="100%" height="100%" overflow="visible" style="display: block;" viewBox="0 0 25 20" fill="none" xmlns="http://www.w3.org/2000/svg">
<g id="Frame 427320190">
<path id="cube" d="M12.6953 1.29883C12.5391 1.2207 12.4219 1.2207 12.2656 1.29883L4.21875 4.22852L12.5 7.4707L20.7422 4.22852L12.6953 1.29883ZM3.75 14.9707C3.75 15.2441 3.90625 15.4785 4.14062 15.5566L11.875 18.4082V8.56445L3.75 5.40039V14.9707ZM13.125 18.4082L20.8203 15.5566C21.0547 15.4785 21.25 15.2441 21.25 14.9707V5.40039L13.125 8.56445V18.4082ZM11.8359 0.0878906C12.2656 -0.0292969 12.6953 -0.0292969 13.125 0.0878906L21.25 3.0957C21.9922 3.36914 22.5 4.07227 22.5 4.85352V14.9707C22.5 15.752 21.9922 16.4551 21.25 16.7285L13.125 19.6973C12.6953 19.8535 12.2656 19.8535 11.8359 19.6973L3.71094 16.7285C2.96875 16.4551 2.5 15.752 2.5 14.9707V4.85352C2.5 4.07227 2.96875 3.36914 3.71094 3.0957L11.8359 0.0878906Z" fill="var(--fill-0, black)"/>
</g>
</svg>
