<svg preserveAspectRatio="none" width="100%" height="100%" overflow="visible" style="display: block;" viewBox="0 0 51 41" fill="none" xmlns="http://www.w3.org/2000/svg">
<g id="Arrow">
<path id="arrow-right" d="M49.8448 20.7868L39.9124 30.3827C39.7572 30.5391 39.4985 30.5391 39.3433 30.3827C39.1881 30.2262 39.1881 29.9654 39.3433 29.809L48.5515 20.8911H1.41385C1.15519 20.8911 1 20.7347 1 20.4739C1 20.2653 1.15519 20.0567 1.41385 20.0567H48.5515L39.3433 11.191C39.1881 11.0346 39.1881 10.7738 39.3433 10.6173C39.4985 10.4609 39.7572 10.4609 39.9124 10.6173L49.8448 20.2132C49.9483 20.2653 50 20.3696 50 20.4739C50 20.6304 49.9483 20.7347 49.8448 20.7868Z" fill="var(--fill-0, white)" stroke="var(--stroke-2, white)" stroke-width="0.5"/>
</g>
</svg>
