<svg preserveAspectRatio="none" width="100%" height="100%" overflow="visible" style="display: block;" viewBox="0 0 25 15" fill="none" xmlns="http://www.w3.org/2000/svg">
<g id="Frame 427320186">
<path id="video" d="M3.75 1.25C3.04688 1.25 2.5 1.83594 2.5 2.5V12.5C2.5 13.2031 3.04688 13.75 3.75 13.75H13.75C14.4141 13.75 15 13.2031 15 12.5V2.5C15 1.83594 14.4141 1.25 13.75 1.25H3.75ZM1.25 2.5C1.25 1.13281 2.34375 0 3.75 0H13.75C15.1172 0 16.25 1.13281 16.25 2.5V12.5C16.25 13.9062 15.1172 15 13.75 15H3.75C2.34375 15 1.25 13.9062 1.25 12.5V2.5ZM21.5234 13.5938L17.5 11.3672V9.92188L22.1094 12.5C22.1484 12.5 22.1875 12.5391 22.2266 12.5391C22.3828 12.5391 22.5 12.4219 22.5 12.2656V2.77344C22.5 2.61719 22.3828 2.5 22.2266 2.5C22.1875 2.5 22.1484 2.53906 22.1094 2.53906L17.5 5.11719V3.67188L21.5234 1.44531C21.7578 1.32812 21.9922 1.25 22.2266 1.25C23.0469 1.25 23.75 1.95312 23.75 2.77344V12.2656C23.75 13.0859 23.0469 13.75 22.2266 13.75C21.9922 13.75 21.7578 13.7109 21.5234 13.5938Z" fill="var(--fill-0, black)"/>
</g>
</svg>
