<svg preserveAspectRatio="none" width="100%" height="100%" overflow="visible" style="display: block;" viewBox="0 0 25 21" fill="none" xmlns="http://www.w3.org/2000/svg">
<g id="Frame 427320192">
<path id="code" d="M15.8203 0.034375C16.1328 0.151563 16.3281 0.503125 16.2109 0.815625L9.96094 19.5656C9.84375 19.9172 9.49219 20.0734 9.17969 19.9953C8.82812 19.8781 8.67188 19.5266 8.75 19.175L15 0.425C15.1172 0.1125 15.4688 -0.0828125 15.8203 0.034375ZM6.71875 4.60469H6.67969C6.91406 4.83906 6.91406 5.26875 6.64062 5.46406L1.5625 9.99531L6.64062 14.5656C6.91406 14.7609 6.91406 15.1906 6.71875 15.425C6.48438 15.6984 6.09375 15.6984 5.82031 15.4641L0.195312 10.4641C0.078125 10.3469 0 10.1906 0 9.99531C0 9.83906 0.078125 9.68281 0.195312 9.56563L5.82031 4.56563C6.09375 4.33125 6.48438 4.33125 6.71875 4.60469ZM18.2812 4.60469C18.5156 4.33125 18.9062 4.29219 19.1406 4.52656L24.7656 9.52656C24.9219 9.64375 25 9.83906 25 9.99531C25 10.1906 24.9219 10.3469 24.7656 10.4641L19.1406 15.4641C18.9062 15.6984 18.5156 15.6984 18.2812 15.425C18.0469 15.1516 18.0469 14.7609 18.3203 14.5266L23.3984 9.99531L18.3203 5.46406C18.0469 5.26875 18.0469 4.83906 18.2812 4.60469Z" fill="var(--fill-0, black)"/>
</g>
</svg>
