<svg preserveAspectRatio="none" width="100%" height="100%" overflow="visible" style="display: block;" viewBox="0 0 49 41" fill="none" xmlns="http://www.w3.org/2000/svg">
<g id="Frame 427320145">
<path id="arrow-right" d="M48.8448 20.7868L38.9124 30.3827C38.7572 30.5391 38.4985 30.5391 38.3433 30.3827C38.1881 30.2262 38.1881 29.9654 38.3433 29.809L47.5515 20.8911H0.413851C0.155194 20.8911 0 20.7347 0 20.4739C0 20.2653 0.155194 20.0567 0.413851 20.0567H47.5515L38.3433 11.191C38.1881 11.0346 38.1881 10.7738 38.3433 10.6173C38.4985 10.4609 38.7572 10.4609 38.9124 10.6173L48.8448 20.2132C48.9483 20.2653 49 20.3696 49 20.4739C49 20.6304 48.9483 20.7347 48.8448 20.7868Z" fill="var(--fill-0, black)"/>
</g>
</svg>
