<svg preserveAspectRatio="none" width="100%" height="100%" overflow="visible" style="display: block;" viewBox="0 0 19 19" fill="none" xmlns="http://www.w3.org/2000/svg">
<g id="g12">
<path id="path14" d="M18.9434 9.47191C18.9434 14.703 14.7028 18.9437 9.47171 18.9437C4.24061 18.9437 -2.82725e-05 14.703 -2.82725e-05 9.47191C-2.82725e-05 4.74429 3.46365 0.825808 7.99175 0.115239V6.73399H5.58682V9.47191H7.99175V11.5587C7.99175 13.9325 9.40581 15.2438 11.5694 15.2438C12.6057 15.2438 13.6896 15.0588 13.6896 15.0588V12.7278H12.4952C11.3186 12.7278 10.9517 11.9977 10.9517 11.2487V9.47191H13.5786L13.1587 6.73399H10.9517V0.115239C15.4798 0.825808 18.9434 4.74429 18.9434 9.47191Z" fill="var(--fill-0, white)"/>
<path id="path16" d="M13.1587 6.73382L13.5786 9.47174H10.9517V11.2485C10.9517 11.9975 11.3186 12.7277 12.4952 12.7277H13.6896V15.0586C13.6896 15.0586 12.6057 15.2436 11.5694 15.2436C9.40581 15.2436 7.99175 13.9323 7.99175 11.5585V9.47174H5.58682V6.73382H7.99175V0.115068C8.47398 0.0394078 8.96823 2.39274e-06 9.47171 2.39274e-06C9.97519 2.39274e-06 10.4694 0.0394078 10.9517 0.115068V6.73382H13.1587Z" fill="var(--fill-0, black)"/>
</g>
</svg>
