<svg preserveAspectRatio="none" width="100%" height="100%" overflow="visible" style="display: block;" viewBox="0 0 19 19" fill="none" xmlns="http://www.w3.org/2000/svg">
<path id="Path 2520" d="M16.1678 16.0084H13.3562V11.6488C13.3562 10.6092 13.3375 9.2709 11.894 9.2709C10.4296 9.2709 10.2056 10.4036 10.2056 11.5731V16.0081H7.39403V7.04295H10.0931V8.26814H10.1309C10.401 7.81084 10.7913 7.43465 11.2603 7.17963C11.7292 6.92461 12.2593 6.80031 12.7939 6.81996C15.6436 6.81996 16.169 8.67585 16.169 11.0903L16.1678 16.0084ZM4.22169 5.81748C3.89899 5.81754 3.58352 5.72285 3.31518 5.54539C3.04684 5.36792 2.83769 5.11565 2.71414 4.82048C2.5906 4.5253 2.55822 4.20049 2.62112 3.8871C2.68402 3.57371 2.83936 3.28583 3.0675 3.05986C3.29564 2.83389 3.58633 2.67997 3.90281 2.61758C4.21929 2.55519 4.54735 2.58713 4.8455 2.70935C5.14365 2.83157 5.3985 3.03858 5.57783 3.30422C5.75716 3.56985 5.85291 3.88218 5.85297 4.20169C5.85301 4.41385 5.81084 4.62393 5.72888 4.81994C5.64692 5.01596 5.52678 5.19407 5.3753 5.34411C5.22383 5.49415 5.04397 5.61318 4.84604 5.6944C4.6481 5.77562 4.43595 5.81745 4.22169 5.81748ZM5.62745 16.0084H2.81299V7.04295H5.62745V16.0084ZM17.5694 0.00128004H1.4002C1.03321 -0.00282073 0.679564 0.137513 0.417012 0.391443C0.15446 0.645374 0.00447899 0.992126 0 1.3555V17.4319C0.00432569 17.7955 0.154219 18.1425 0.416762 18.3967C0.679305 18.6508 1.03303 18.7915 1.4002 18.7876H17.5694C17.9374 18.7922 18.2921 18.6519 18.5556 18.3978C18.8192 18.1436 18.9701 17.7962 18.9752 17.4319V1.35434C18.97 0.990246 18.819 0.643099 18.5554 0.389175C18.2918 0.13525 17.9372 -0.00468239 17.5694 0.000119632" fill="var(--fill-0, white)"/>
</svg>
