<svg preserveAspectRatio="none" width="100%" height="100%" overflow="visible" style="display: block;" viewBox="0 0 28 36" fill="none" xmlns="http://www.w3.org/2000/svg">
<path id="path4213" d="M19.5284 18.4096C18.195 18.4096 17.1147 17.3293 17.1147 15.9958C17.1147 15.8551 17.1267 15.7174 17.1505 15.5834L11.3782 12.2594C10.9582 12.6141 10.4152 12.8282 9.82262 12.8282C8.4892 12.8282 7.40844 11.7474 7.40844 10.4144C7.40844 9.08138 8.4892 8.00057 9.82262 8.00057C11.156 8.00057 12.2368 9.08138 12.2368 10.4144C12.2368 10.5679 12.2211 10.7181 12.1934 10.864L17.9447 14.1755C18.3685 13.806 18.9225 13.582 19.5284 13.582C20.8609 13.582 21.9417 14.6628 21.9417 15.9958C21.9417 17.3293 20.8609 18.4096 19.5284 18.4096ZM12.2072 21.6153C12.2072 22.9483 11.127 24.0291 9.79354 24.0291C8.46107 24.0291 7.38031 22.9483 7.38031 21.6153C7.38031 20.2818 8.46107 19.201 9.79354 19.201C10.3928 19.201 10.9401 19.4198 11.362 19.7812L15.5701 17.3626C15.7499 17.8818 16.0292 18.3548 16.3844 18.7591L12.1686 21.1824C12.1934 21.3231 12.2072 21.4675 12.2072 21.6153ZM26.7209 6.88401L15.2593 0.334325C14.4789 -0.111442 13.5206 -0.111442 12.7402 0.334325L1.27955 6.88401C0.488175 7.33597 0 8.17792 0 9.08853V22.412C0 23.3188 0.483885 24.1574 1.26954 24.6108L21.0001 36L21.0035 27.9104L26.729 24.6108C27.5156 24.1574 28 23.3188 28 22.411V9.08853C28 8.17792 27.5118 7.33597 26.7209 6.88401Z" fill="var(--fill-0, black)"/>
</svg>
