<svg preserveAspectRatio="none" width="100%" height="100%" overflow="visible" style="display: block;" viewBox="0 0 39 30" fill="none" xmlns="http://www.w3.org/2000/svg">
<path id="Vector" fill-rule="evenodd" clip-rule="evenodd" d="M38.5897 2.51711C38.1769 2.30647 37.9982 2.70907 37.7577 2.91462C37.6748 2.98087 37.6049 3.0675 37.5351 3.14564C36.9306 3.82004 36.2253 4.26171 35.304 4.20905C33.9569 4.13091 32.8064 4.57258 31.7892 5.64958C31.573 4.32117 30.8548 3.52956 29.7628 3.01994C29.1908 2.75493 28.6124 2.49163 28.211 1.91576C27.9315 1.50636 27.8551 1.0494 27.7154 0.600938C27.626 0.329141 27.5366 0.0522463 27.2393 0.00638047C26.9143 -0.0462803 26.7875 0.237409 26.6608 0.475232C26.1522 1.44691 25.9555 2.51711 25.975 3.60091C26.0189 6.04029 27.0036 7.98364 28.9617 9.36471C29.1843 9.5227 29.2412 9.68238 29.1713 9.91341C29.0381 10.3891 28.8788 10.8511 28.7391 11.3285C28.6497 11.6325 28.5165 11.6971 28.2045 11.5663C27.1503 11.0927 26.1927 10.4122 25.3835 9.56177C23.9909 8.15521 22.7332 6.60257 21.1635 5.38628C20.7998 5.10533 20.4263 4.83845 20.0439 4.58617C18.4433 2.96048 20.2551 1.62528 20.6744 1.46729C21.1131 1.30082 20.8255 0.73344 19.4085 0.740235C17.9916 0.74703 16.6948 1.24136 15.0422 1.90217C14.7967 2.00055 14.544 2.07837 14.2866 2.1349C12.7423 1.83071 11.1629 1.77229 9.60185 1.96163C6.53879 2.31836 4.09321 3.83363 2.29437 6.41741C0.133165 9.5227 -0.375449 13.0527 0.246913 16.7321C0.901775 20.612 2.79649 23.8244 5.70681 26.3351C8.726 28.9392 12.2018 30.215 16.1683 29.9704C18.5765 29.826 21.2594 29.4879 24.2834 26.8107C25.0472 27.2082 25.8467 27.3662 27.1759 27.4851C28.1996 27.5854 29.1843 27.4342 29.9465 27.2677C31.1408 27.0027 31.0579 25.8458 30.6273 25.6352C27.1255 23.9297 27.8941 24.6245 27.1938 24.0622C28.9747 21.8606 31.6559 19.5741 32.7056 12.1659C32.7869 11.5765 32.717 11.2061 32.7056 10.7305C32.6991 10.4417 32.7625 10.3279 33.0794 10.2956C33.9586 10.2003 34.8114 9.92617 35.59 9.48872C37.8584 8.19259 38.7749 6.06577 38.991 3.51427C39.0235 3.12356 38.9845 2.72266 38.5897 2.51711ZM18.8187 25.4806C15.4241 22.6913 13.778 21.7723 13.0988 21.8114C12.4618 21.8521 12.5772 22.6115 12.7169 23.1075C12.8632 23.5967 13.0533 23.9331 13.3198 24.3629C13.505 24.6465 13.6318 25.0695 13.1362 25.3872C12.0426 26.0939 10.143 25.1494 10.0536 25.1035C7.84201 23.7411 5.99117 21.9439 4.68958 19.4858C3.43185 17.1194 2.70061 14.5815 2.58037 11.872C2.54787 11.2163 2.73149 10.9853 3.35548 10.8664C4.17464 10.7025 5.01396 10.6801 5.84005 10.8001C9.30448 11.3302 12.2522 12.949 14.7254 15.5124C16.1358 16.9734 17.2035 18.718 18.3036 20.4235C19.4735 22.2343 20.7313 23.9603 22.3335 25.3736C22.899 25.8696 23.3491 26.2468 23.7813 26.5236C22.4781 26.6765 20.3039 26.7105 18.8187 25.4806ZM20.4436 14.5408C20.4434 14.4564 20.4627 14.3732 20.5001 14.2984C20.5374 14.2236 20.5917 14.1594 20.658 14.1114C20.7244 14.0634 20.801 14.033 20.8811 14.0229C20.9613 14.0128 21.0426 14.0232 21.118 14.0532C21.2141 14.0893 21.2971 14.1558 21.3554 14.2435C21.4136 14.3312 21.4443 14.4357 21.443 14.5425C21.4432 14.6114 21.4303 14.6798 21.405 14.7435C21.3797 14.8072 21.3425 14.865 21.2956 14.9136C21.2488 14.9621 21.1931 15.0004 21.1319 15.0262C21.0707 15.052 21.0052 15.0649 20.9393 15.064C20.8738 15.0642 20.8089 15.0508 20.7484 15.0245C20.688 14.9982 20.6331 14.9596 20.5871 14.9108C20.5411 14.8621 20.5049 14.8043 20.4805 14.7407C20.4562 14.6772 20.4426 14.6092 20.4436 14.5408ZM25.4973 17.2519C25.1723 17.3895 24.8489 17.5085 24.5386 17.5237C24.0716 17.5408 23.6134 17.3883 23.2418 17.0923C22.7966 16.7016 22.4781 16.4841 22.3449 15.8046C22.2989 15.4726 22.3077 15.1347 22.3709 14.8058C22.4846 14.2503 22.3578 13.8935 21.9825 13.5708C21.6786 13.3058 21.2902 13.2327 20.8645 13.2327C20.7187 13.2239 20.5772 13.1784 20.4518 13.1002C20.273 13.0085 20.1268 12.7775 20.2665 12.4921C20.312 12.4004 20.5265 12.1761 20.5785 12.1354C21.157 11.7922 21.8249 11.9043 22.4407 12.1625C23.0127 12.4072 23.445 12.8556 24.0673 13.4909C24.7027 14.2571 24.8181 14.4694 25.1804 15.0436C25.4664 15.4938 25.7264 15.9558 25.9035 16.4841C26.0124 16.8154 25.8727 17.0855 25.4973 17.2519Z" fill="var(--fill-0, black)"/>
</svg>
