<svg preserveAspectRatio="none" width="100%" height="100%" overflow="visible" style="display: block;" viewBox="0 0 37 30" fill="none" xmlns="http://www.w3.org/2000/svg">
<g id="Vector">
<path d="M5.16907 0.0415474C5.58708 -0.102953 5.97767 0.163817 6.34656 0.31721C9.69401 1.86003 12.716 4.02866 15.3542 6.54964C19.5696 10.5901 22.8245 15.7721 23.7816 21.5133C23.9221 21.8867 23.4812 22.2769 23.1169 22.0868C20.9527 21.2431 18.6685 20.6574 16.3375 20.4984C12.6543 20.2161 8.9094 21.1331 5.76296 23.0083C5.56195 23.1361 5.30384 23.2806 5.06971 23.1317C4.7762 22.9794 4.76478 22.5692 4.9989 22.3602C7.12318 19.7437 8.43658 16.4946 8.58961 13.1544C8.81689 8.75717 7.31048 4.42881 5.03545 0.677351C4.89041 0.47505 4.96007 0.174933 5.16907 0.0415474ZM6.58412 1.4621C8.43543 4.88455 9.63919 8.71271 9.5661 12.6076C9.5227 15.6888 8.5839 18.7466 6.89248 21.3521C8.68098 20.5073 10.6042 19.9326 12.5755 19.6792C15.9926 19.229 19.4874 19.7781 22.7035 20.9364C21.6905 15.9555 18.8935 11.4504 15.3028 7.82125C12.7685 5.27025 9.83563 3.07606 6.58412 1.4621Z" fill="var(--fill-0, black)"/>
<path d="M15.128 3.66404C15.3268 3.55956 15.5461 3.66515 15.7413 3.72295C17.6989 4.38543 19.4371 5.53477 21.0246 6.80971C24.0237 9.26178 26.526 12.2696 28.4801 15.5676C29.5583 17.4094 30.4628 19.3546 31.0864 21.3876C31.2234 21.72 30.842 22.1012 30.4982 21.9701C29.781 21.7133 29.0832 21.3787 28.3203 21.2665C27.6727 21.1575 27.0126 21.2387 26.3787 21.3854C26.1286 21.4654 25.8396 21.2965 25.7905 21.0464C24.7432 17.3794 23.2688 13.7958 21.1091 10.6101C19.4999 8.23138 17.4819 6.0961 15.0721 4.46991C14.7614 4.2954 14.7991 3.79743 15.128 3.66404ZM18.8238 6.34842C22.6852 10.221 25.0813 15.2486 26.5923 20.3861C27.691 20.1694 28.833 20.3205 29.8666 20.7285C28.6195 17.2638 26.6391 14.0725 24.2293 11.2581C22.6384 9.42184 20.8579 7.72007 18.8238 6.34842Z" fill="var(--fill-0, black)"/>
<path d="M33.511 22.7315C33.76 22.7148 34.0112 22.6882 34.2625 22.7015C34.6223 22.7626 34.773 23.2628 34.4841 23.4918C32.0606 25.6382 29.1928 27.2444 26.2588 28.6338C26.7716 28.9839 27.4328 29.1907 28.0473 28.9817C28.9392 28.6783 29.5388 27.9191 30.3177 27.4367C31.1058 26.8954 32.1713 26.7253 33.0702 27.1043C34.1392 27.5112 34.8164 28.5138 35.8683 28.945C36.2018 29.124 36.6951 28.9373 36.9281 29.2863C37.1508 29.6109 36.8196 30.0655 36.4325 29.9921C35.255 29.9766 34.3756 29.1318 33.5201 28.4537C32.9468 27.9769 32.1405 27.6434 31.3947 27.9346C30.2789 28.377 29.5777 29.4664 28.4185 29.8398C27.4488 30.1966 26.3513 29.901 25.5655 29.2863C24.7752 28.7527 24.1094 27.8891 23.0769 27.8291C22.0422 27.7935 21.3284 28.6294 20.5723 29.1851C19.8254 29.7887 18.8158 30.17 17.8451 29.9176C16.703 29.6553 15.9652 28.6983 15.0058 28.1214C14.4485 27.7735 13.705 27.7268 13.1214 28.0414C12.1506 28.5493 11.4631 29.4886 10.3964 29.8398C9.46216 30.1866 8.44571 29.8487 7.59942 29.4297C6.71773 28.9951 6.07588 28.2448 5.31297 27.6557C5.00118 27.3778 4.60831 27.6445 4.29309 27.7757C3.11675 28.2714 2.28188 29.2885 1.13866 29.8365C0.777759 30.011 0.165602 30.1322 0 29.6509V29.3874C0.157608 28.9884 0.662408 29.1051 0.95935 28.8806C1.81705 28.347 2.55256 27.6468 3.43196 27.1443C3.11218 26.5352 2.77412 25.935 2.45891 25.3236C2.28874 25.0469 2.52058 24.6578 2.84836 24.6556C13.0677 24.0076 23.2905 23.3751 33.511 22.7315ZM3.64667 25.5326C3.86253 25.9372 4.07838 26.3418 4.2988 26.7453C4.66427 26.6308 5.06628 26.5085 5.43974 26.673C6.12157 26.9476 6.5784 27.5456 7.13802 27.988C7.82441 28.5682 8.67755 29.0062 9.59693 29.0618C10.4181 29.0017 11.0291 28.4015 11.6333 27.9224C12.3825 27.2822 13.3544 26.7531 14.3868 26.9276C15.6054 27.0865 16.406 28.078 17.3711 28.7072C17.957 29.1118 18.7701 29.1885 19.3994 28.8306C20.457 28.2481 21.2313 27.161 22.4888 26.9454C23.5932 26.7097 24.6382 27.2955 25.4331 27.9847C28.0073 26.7998 30.5188 25.4403 32.7527 23.7097C23.0507 24.3188 13.3487 24.9268 3.64667 25.5326Z" fill="var(--fill-0, black)"/>
</g>
</svg>
