<svg preserveAspectRatio="none" width="100%" height="100%" overflow="visible" style="display: block;" viewBox="0 0 29 32" fill="none" xmlns="http://www.w3.org/2000/svg">
<g id="Group 3">
<path id="Vector" d="M22.8336 18.5458L1.99512 7.17347C0.0710554 6.05235 -0.570591 3.81013 0.553206 1.88757C1.6752 0.126206 4.0796 -0.514946 6.00277 0.446781L26.8412 11.8182C28.7653 12.9402 29.406 15.1825 28.2841 17.1041C27.3216 19.0267 24.7577 19.6669 22.8336 18.5458ZM13.216 25.4328L2.15554 19.3463C0.231477 18.2252 -0.409275 15.983 0.71272 14.0604C1.83562 12.2991 4.23911 11.6588 6.16317 12.6197L17.2236 18.7061C19.1468 19.8272 19.7875 22.0694 18.6655 23.992C17.5435 25.7534 15.1391 26.3945 13.216 25.4328Z" fill="var(--fill-0, black)"/>
<path id="Vector_2" opacity="0.5" d="M0.0723476 27.9964V16.1432C0.0723476 13.901 1.836 12.1387 4.07999 12.1387C6.32398 12.1387 8.08764 13.901 8.08764 16.1432V27.9955C8.08764 30.2377 6.32398 32 4.07999 32C1.836 32 0.0723476 30.2386 0.0723476 27.9955V27.9964Z" fill="var(--fill-0, black)"/>
</g>
</svg>
