<svg preserveAspectRatio="none" width="100%" height="100%" overflow="visible" style="display: block;" viewBox="0 0 27 27" fill="none" xmlns="http://www.w3.org/2000/svg">
<path id="Vector" d="M20.7 26.9835C17.429 27.2823 14.6926 23.4484 12.5971 21.5044C11.5363 29.144 -0.00649172 28.4188 2.73948e-06 20.6709C0.00433238 17.415 2.73948e-06 9.46149 2.73948e-06 6.30952C2.73948e-06 5.17516 0.311737 4.0343 0.894074 3.06663C2.00246 1.18973 4.1413 -0.0225631 6.32128 0.00124986C9.60531 0.00557949 17.5112 -0.00307977 20.7 0.00124986C28.4566 0.00124986 29.1926 11.5419 21.527 12.581L25.1639 16.2136C29.1601 19.9717 26.1619 27.1502 20.6979 26.9857L20.7 26.9835ZM18.9379 22.4374C21.1914 24.7602 24.7915 21.1623 22.4687 18.9109L16.1626 12.6135H12.6361V16.1399L18.0871 21.5823L18.9379 22.4374ZM3.81875 20.6731C3.76679 23.9008 8.86278 23.9116 8.81299 20.6731V6.30736C8.85628 4.69673 7.15473 3.41949 5.61555 3.91524C5.54844 3.93472 5.48566 3.9542 5.42721 3.97802C4.4617 4.33521 3.7906 5.32453 3.81875 6.35498V20.6731ZM20.7 8.79906C23.9408 8.85102 23.9364 3.76153 20.7 3.81349H12.136C12.7854 5.18382 12.6209 7.31616 12.6317 8.79906H20.7Z" fill="var(--fill-0, black)"/>
</svg>
