<svg preserveAspectRatio="none" width="100%" height="100%" overflow="visible" style="display: block;" viewBox="0 0 36 36" fill="none" xmlns="http://www.w3.org/2000/svg">
<g id="Vector">
<path d="M19.8529 24.4321C19.0949 23.9391 18.8658 23.4601 18.7999 23.2614L18.7747 23.1653L18.7704 23.1703C18.7356 23.2101 18.4777 23.483 17.9834 23.495V23.4961H17.9791L17.9768 23.4959H17.9753L17.9669 23.4954L17.957 23.4959L17.9505 23.4961V23.495C17.456 23.4828 17.1983 23.2101 17.1635 23.1703L17.1592 23.1653L17.134 23.2614C17.0681 23.4601 16.839 23.9393 16.081 24.4321C14.0875 25.7285 13.9761 27.0362 13.97 27.1834C14.0144 25.1665 14.4169 23.9279 14.92 23.1653L14.9202 23.1658C15.5268 22.2471 16.2797 22.0199 16.7292 21.9562C17.4035 21.861 17.8331 22.1801 17.9669 22.2991C18.1008 22.1801 18.5306 21.861 19.2047 21.9562C19.6544 22.0199 20.4073 22.2471 21.0137 23.1658L21.0141 23.1653C21.5172 23.9276 21.9195 25.166 21.9641 27.1827C21.9575 27.0335 21.8444 25.7274 19.8529 24.4321Z" fill="var(--fill-0, black)"/>
<path d="M19.872 27.94C19.7191 28.197 19.5506 28.4445 19.3675 28.681C18.4444 29.8705 17.95 31.1101 17.95 31.7311H17.9478C17.9478 31.1101 17.4537 29.8705 16.5305 28.681C16.3476 28.4445 16.1792 28.197 16.0263 27.94C15.5061 27.0679 15.7522 25.956 16.6 25.3735C16.855 25.1997 17.0463 24.9474 17.145 24.655C17.2577 24.3178 17.5808 24.0892 17.946 24.0867H17.9516C18.317 24.0892 18.6401 24.318 18.7528 24.6553C18.8516 24.9475 19.0428 25.1997 19.2976 25.3737C20.1456 25.9562 20.3915 27.0682 19.8715 27.9403L19.872 27.94ZM15.6541 19.6582L15.2878 19.8245L15.2806 19.8281L14.994 19.9858C14.5069 20.2786 14.3032 20.5364 14.3032 20.5364C14.2094 20.038 13.8537 19.4697 13.4482 18.8226C12.7514 17.7091 11.9086 16.3627 12.0028 14.7395L13.3164 14.5982C13.2705 14.5442 13.2277 14.49 13.1881 14.4369C13.1319 14.362 13.23 14.2686 13.3024 14.3278C13.6397 14.6041 14.0404 14.8295 14.3696 14.8295C14.8732 14.8295 15.3034 14.3147 15.3034 14.3147C15.3034 14.3147 14.8882 13.894 14.3696 13.894C14.08 13.894 13.6451 14.0182 13.3177 14.1275C13.2327 14.1563 13.1749 14.0409 13.2493 13.9905C13.5457 13.7902 13.9819 13.5637 14.4403 13.5637C15.1672 13.5637 16.2646 14.7895 16.6554 15.226L16.6556 15.2262C16.706 15.2824 16.7447 15.3259 16.7692 15.3515L16.6984 18.1282C16.0315 18.0976 15.5351 18.5035 15.4091 18.9877C15.2831 19.4719 15.6544 19.6578 15.6544 19.6578L15.6541 19.6582Z" fill="var(--fill-0, black)"/>
<path d="M19.9035 19.3955C19.8117 19.46 19.7069 19.5036 19.5964 19.5233C19.4859 19.5429 19.3725 19.5381 19.264 19.5091L19.0152 19.4429L19.0093 19.4416L18.9988 19.4805C18.864 19.9789 18.445 20.3414 17.9998 20.3468C17.5545 20.3414 17.1358 19.9789 17.0008 19.4805L16.9902 19.4416L16.7357 19.5091C16.6272 19.5381 16.5137 19.543 16.4031 19.5234C16.2926 19.5037 16.1877 19.4601 16.0958 19.3955C16.0155 19.3388 15.9609 19.2527 15.9439 19.1559C15.9268 19.0592 15.9487 18.9596 16.0047 18.8789C16.0753 18.7771 16.1797 18.7036 16.2994 18.6715C16.419 18.6394 16.5462 18.6507 16.6583 18.7034L17.1434 18.9299L17.2411 16.855C17.2847 15.9302 17.2717 14.9933 17.2028 14.0697C17.1857 13.8544 17.0883 13.6535 16.9299 13.5067C16.7715 13.3599 16.5638 13.278 16.3478 13.2773H13.9855C13.8415 13.2773 13.6982 13.2896 13.5571 13.3133V13.3137C13.1525 13.382 12.7693 13.5437 12.438 13.786L12.4366 13.7869L12.4348 13.7882H12.4344L12.433 13.7896L12.4321 13.79L12.4317 13.7905L12.431 13.7909C12.4054 13.8098 12.3799 13.8292 12.3547 13.8492L12.3466 13.856C12.3237 13.874 12.301 13.8929 12.2787 13.9122L12.2706 13.919C12.2474 13.9392 12.2251 13.9595 12.2026 13.9804L12.199 13.9838C12.1954 13.987 12.1919 13.9904 12.1885 13.9939C12.166 14.015 12.1437 14.0364 12.1221 14.0587C12.3793 12.8619 12.733 11.7884 13.1733 10.8671C13.5828 10.0105 14.0699 9.28013 14.6205 8.69603C15.1312 8.15446 15.6942 7.74068 16.2936 7.46641C16.8469 7.21328 17.4206 7.08323 17.9991 7.07896H18.0072C18.5832 7.08436 19.1542 7.21418 19.7048 7.46618C20.3044 7.74068 20.8672 8.15423 21.3779 8.69581C21.9285 9.27991 22.4152 10.01 22.8249 10.8668C23.2654 11.788 23.6191 12.8619 23.8763 14.0585C23.8546 14.0366 23.8324 14.015 23.8099 13.9939L23.805 13.9892L23.8025 13.9869L23.7958 13.9804C23.7735 13.9596 23.7508 13.9392 23.7278 13.9192L23.7244 13.9163L23.7222 13.9145L23.7195 13.9122C23.6972 13.8929 23.6745 13.874 23.6515 13.8555L23.6477 13.8524L23.647 13.8521L23.645 13.8503L23.6432 13.849C23.6183 13.829 23.5929 13.8096 23.5672 13.7907L23.5663 13.79L23.5649 13.7891L23.5638 13.7882L23.5602 13.7855C23.229 13.5432 22.8457 13.3816 22.441 13.3135V13.313C22.2995 13.2892 22.1562 13.2772 22.0126 13.277H19.6508C19.4348 13.2778 19.227 13.3597 19.0686 13.5065C18.9103 13.6534 18.8129 13.8544 18.7958 14.0697C18.7267 14.9964 18.7139 15.9265 18.7576 16.8548L18.8554 18.9297L19.3405 18.7031C19.4527 18.6504 19.5798 18.6392 19.6995 18.6713C19.8191 18.7034 19.9235 18.7769 19.9942 18.8786C20.0502 18.9594 20.072 19.059 20.0549 19.1558C20.0378 19.2525 19.9831 19.3386 19.9028 19.3952H19.9037L19.9035 19.3955Z" fill="var(--fill-0, black)"/>
<path d="M21.6968 20.5364C21.6968 20.5364 21.4927 20.2786 21.006 19.9859L20.7191 19.8281L20.7119 19.8245L20.3456 19.658C20.3456 19.658 20.7169 19.4724 20.5909 18.988C20.4649 18.5036 19.9685 18.0981 19.3016 18.1287C19.3016 18.1287 19.1698 15.4226 19.3844 15.1983C19.4235 15.1563 19.462 15.1137 19.4999 15.0705C19.8684 14.6552 20.8373 13.5641 21.5597 13.5641C22.0178 13.5641 22.4543 13.7905 22.7507 13.991C22.8251 14.0411 22.7673 14.1563 22.6823 14.1282C22.3547 14.0184 21.92 13.8942 21.6304 13.8942C21.1118 13.8942 20.6966 14.315 20.6966 14.315C20.6966 14.315 21.1268 14.8302 21.6304 14.8302C21.9593 14.8302 22.3603 14.6043 22.6976 14.3285C22.77 14.2688 22.8681 14.3622 22.8119 14.4374C22.7723 14.4905 22.7295 14.5447 22.6836 14.5987L23.9972 14.74C24.0914 16.3629 23.2486 17.7093 22.5518 18.8226C22.1465 19.4699 21.7906 20.0383 21.6968 20.5364Z" fill="var(--fill-0, black)"/>
<path fill-rule="evenodd" clip-rule="evenodd" d="M18 0C8.05883 0 0 8.05883 0 18C0 27.9412 8.05883 36 18 36C27.9412 36 36 27.9412 36 18C36 8.05883 27.9412 0 18 0ZM18.6244 1.47645C18.6243 1.64702 18.5564 1.81056 18.4357 1.9311C18.3151 2.05165 18.1514 2.11933 17.9809 2.11927C17.6254 2.11927 17.3374 1.8315 17.3374 1.47645C17.3374 1.39198 17.3541 1.30835 17.3864 1.23033C17.4188 1.15231 17.4662 1.08143 17.526 1.02173C17.5857 0.962037 17.6566 0.914699 17.7347 0.882424C17.8128 0.850148 17.8964 0.833566 17.9809 0.833625C18.3364 0.833625 18.6244 1.12162 18.6244 1.47645ZM3.15472 9.009C2.79922 9.009 2.51122 9.297 2.51122 9.65182C2.5114 9.82237 2.57928 9.98588 2.69994 10.1064C2.8206 10.2269 2.98417 10.2947 3.15472 10.2947C3.32527 10.2947 3.48885 10.2269 3.60951 10.1064C3.73017 9.98588 3.79805 9.82237 3.79823 9.65182C3.7982 9.56736 3.78153 9.48373 3.74917 9.40571C3.71681 9.32768 3.6694 9.2568 3.60964 9.19711C3.54988 9.13741 3.47895 9.09007 3.4009 9.0578C3.32284 9.02552 3.23919 9.00894 3.15472 9.009ZM3.79823 25.9974C3.7982 26.0819 3.78153 26.1655 3.74917 26.2435C3.71681 26.3215 3.6694 26.3924 3.60964 26.4521C3.54988 26.5118 3.47895 26.5592 3.4009 26.5914C3.32284 26.6237 3.23919 26.6403 3.15472 26.6402C2.98416 26.6403 2.82055 26.5726 2.69987 26.4521C2.5792 26.3315 2.51134 26.168 2.51122 25.9974C2.51128 25.913 2.52798 25.8293 2.56035 25.7513C2.59272 25.6734 2.64013 25.6025 2.69989 25.5428C2.75964 25.4832 2.83057 25.4358 2.90861 25.4036C2.98665 25.3713 3.07028 25.3547 3.15472 25.3548C3.51022 25.3548 3.79823 25.6426 3.79823 25.9974ZM32.8455 26.6402C32.761 26.6403 32.6774 26.6237 32.5993 26.5914C32.5213 26.5592 32.4503 26.5118 32.3906 26.4521C32.3308 26.3924 32.2834 26.3215 32.2511 26.2435C32.2187 26.1655 32.202 26.0819 32.202 25.9974C32.2021 25.913 32.2187 25.8293 32.2511 25.7513C32.2835 25.6734 32.3309 25.6025 32.3907 25.5428C32.4504 25.4832 32.5213 25.4358 32.5994 25.4036C32.6774 25.3713 32.7611 25.3547 32.8455 25.3548C33.201 25.3548 33.489 25.6426 33.489 25.9974C33.4889 26.168 33.421 26.3315 33.3003 26.4521C33.1797 26.5726 33.0161 26.6403 32.8455 26.6402ZM32.202 9.65182C32.202 9.56736 32.2187 9.48373 32.2511 9.40571C32.2834 9.32768 32.3308 9.2568 32.3906 9.19711C32.4503 9.13741 32.5213 9.09007 32.5993 9.0578C32.6774 9.02552 32.761 9.00894 32.8455 9.009C33.201 9.009 33.489 9.297 33.489 9.65182C33.4888 9.82237 33.4209 9.98588 33.3003 10.1064C33.1796 10.2269 33.016 10.2947 32.8455 10.2947C32.6749 10.2947 32.5114 10.2269 32.3907 10.1064C32.2701 9.98588 32.2022 9.82237 32.202 9.65182ZM13.2997 24.1274L13.3031 24.1173C13.3037 24.1158 13.3043 24.1143 13.3049 24.1128L13.3067 24.1079L13.3099 24.0991V24.0984C13.3135 24.0874 13.3175 24.0765 13.3218 24.0658L13.3234 24.0615L13.3465 23.9989L13.3722 23.9431C13.9414 22.7407 15.4638 21.7258 16.3759 21.4947C17.2863 21.2641 17.9435 21.7485 17.9662 21.7656L17.964 21.764L17.9665 21.7658V21.7665L17.9669 21.766L17.9674 21.7665V21.7658C17.9883 21.7501 18.6462 21.2638 19.5579 21.4947C20.4701 21.7255 21.9924 22.7407 22.5616 23.9431L22.5675 23.9557L22.5704 23.9623L22.5758 23.9738L22.5814 23.9863L22.5875 23.9992L22.5952 24.0206L22.6033 24.0421L22.6125 24.0671L22.6127 24.0676L22.6147 24.0732L22.6172 24.08L22.6175 24.0802L22.6177 24.0808L22.6183 24.0831L22.6186 24.0838L22.6192 24.0851L22.6217 24.0919L22.6226 24.0948L22.6253 24.102L22.6276 24.1076L22.6305 24.1159L22.644 24.1537L22.6258 24.1031L22.6242 24.0993C22.651 24.185 22.6726 24.2912 22.689 24.4161C22.8391 25.5132 22.6701 28.1831 21.6616 30.5264C21.2926 31.2291 20.9567 31.84 20.6469 32.3667C21.3483 31.1739 21.7752 29.8398 21.8963 28.4614C21.931 28.0627 21.9539 27.637 21.9638 27.1834V27.1856L21.9636 27.1926C21.9546 27.4248 21.8808 29.3344 18.7753 31.5473C18.5071 31.7385 18.614 32.159 18.9418 32.1968L20.6323 32.3917C20.3258 32.9112 20.0455 33.3472 19.7838 33.7072C19.7568 33.6926 19.7021 33.6517 19.6261 33.5947L19.6258 33.5945C19.2908 33.3443 18.5431 32.7854 17.9478 32.7854H17.9473C17.4053 32.7854 16.7364 33.2689 16.3683 33.5351L16.3681 33.5354C16.2652 33.6098 16.1858 33.6672 16.1393 33.6922C15.8805 33.3353 15.6035 32.904 15.3016 32.3919L16.9922 32.1971C17.3198 32.1595 17.4267 31.7387 17.1585 31.5475C14.0531 29.3344 13.9792 27.425 13.9702 27.1928V27.1865L13.97 27.1834C13.9799 27.637 14.0031 28.0624 14.0375 28.4614C14.1585 29.8385 14.5846 31.1714 15.2849 32.3633C14.976 31.8375 14.641 31.2277 14.2724 30.5266C13.2642 28.1835 13.095 25.5139 13.2451 24.4165C13.2613 24.2917 13.2833 24.1855 13.3099 24.0995L13.2997 24.1274ZM13.2997 24.1274L13.2901 24.154V24.1535L13.2997 24.1274ZM8.65957 9.7479C9.28485 9.11408 10.5736 7.74517 11.7736 6.0813C11.835 5.99625 11.8964 5.91323 11.9581 5.83245C12.0375 5.7285 12.1144 5.6232 12.1907 5.51677L4.15507 9.38182C4.18729 9.501 4.19788 9.62499 4.18635 9.7479H8.65957ZM32.0449 8.9946C29.6138 5.26568 25.7346 2.56612 21.2044 1.68907L23.3739 4.88497L32.0108 9.0387L32.0092 9.04095L32.0087 9.04185L32.0083 9.0423L32.008 9.04275C32.02 9.02632 32.0323 9.01035 32.0449 8.9946ZM23.809 5.51677L24.0417 5.83245C24.1031 5.91345 24.1648 5.99625 24.2262 6.0813C25.4261 7.74495 26.7147 9.11385 27.3402 9.7479H31.8139C31.8025 9.62492 31.813 9.50091 31.8449 9.3816L23.809 5.51677ZM29.1794 26.5129L28.5997 27.9526L31.8674 26.3398L31.8685 26.343C31.869 26.3444 31.8695 26.3457 31.8701 26.347L31.8722 26.3527L31.8746 26.359C31.8181 26.2081 31.7978 26.0462 31.8152 25.886C26.3419 27.2862 26.1722 15.7736 26.1702 15.6141V15.6173C26.0986 24.7273 29.295 25.9522 29.295 25.9522C24.5153 24.9223 24.799 20.6926 25.0249 17.3234C25.0699 16.6529 25.1127 16.0162 25.1127 15.4456C25.1127 12.0098 23.065 9.64507 23.065 9.64507C23.7066 10.0559 24.394 10.3904 25.1131 10.642L25.1134 10.6423L25.1136 10.6427L25.114 10.6438L25.1149 10.6452L25.1156 10.6465L25.117 10.6486L25.1188 10.6517C25.1172 10.649 25.1158 10.6463 25.114 10.6438L25.1138 10.6432L25.1134 10.6423C25.5472 10.7946 25.9914 10.9156 26.4425 11.0045C26.4879 11.0126 26.5327 11.0203 26.5772 11.0277L26.5781 11.0299C27.3418 11.1676 27.8284 11.1546 27.8284 11.1546C27.8284 11.1546 28.5095 12.7859 28.7887 15.7552L28.7953 15.8238L28.8081 15.9622L32.1689 10.435C32.0691 10.3492 31.9865 10.2451 31.9257 10.1284H27.7245C25.2466 10.1284 22.0853 7.8957 20.5054 6.77992L20.5036 6.77858C20.3888 6.69758 20.2822 6.6222 20.1847 6.55425C20.1519 6.53107 20.1195 6.5088 20.0873 6.48675L20.0866 6.48652C20.0333 6.45052 19.9816 6.41655 19.9303 6.38347C19.0177 5.7978 18.4331 5.71252 18.1786 5.7105V4.09095C18.7963 4.13122 20.7083 4.30245 23.141 6.68992C23.141 6.68992 21.0337 3.80092 18.1786 3.81622V2.85705C20.1046 3.00982 21.695 3.47625 23.0641 4.94573L20.752 1.6065C20.1767 1.51146 19.5968 1.44643 19.0147 1.41165C19.0234 1.55274 19.0031 1.6941 18.955 1.82704C18.907 1.95998 18.8323 2.08167 18.7354 2.18462C18.6385 2.28757 18.5216 2.3696 18.3919 2.42566C18.2621 2.48171 18.1222 2.5106 17.9809 2.51055C17.8397 2.51061 17.7 2.48181 17.5704 2.4259C17.4408 2.37 17.3239 2.28818 17.2271 2.18547C17.1302 2.08277 17.0554 1.96134 17.0072 1.82865C16.959 1.69596 16.9384 1.55482 16.9468 1.4139C16.3776 1.44917 15.8106 1.51338 15.248 1.60627L12.9353 4.9455C14.3044 3.47625 15.8947 3.0096 17.8207 2.85682V3.816C14.9657 3.80092 12.8583 6.6897 12.8583 6.6897C15.291 4.30245 17.2031 4.131 17.8207 4.09095V5.71027C17.7809 5.71112 17.7411 5.71322 17.7014 5.71657H17.698L17.6962 5.71702H17.6944C17.365 5.74852 16.7382 5.90805 15.8148 6.5538C15.7172 6.62197 15.61 6.6978 15.4946 6.77925C13.9147 7.89502 10.753 10.1279 8.27505 10.1279H4.07385C4.01288 10.2451 3.93007 10.3491 3.83085 10.4346L7.19145 15.9619L7.1955 15.9181L7.2 15.8724L7.2108 15.7547C7.49002 12.7856 8.1711 11.1541 8.1711 11.1541C8.1711 11.1541 8.65778 11.1672 9.42142 11.0295L9.42007 11.0326L9.4194 11.0342L9.41715 11.0399L9.41648 11.0412L9.41917 11.0347L9.42007 11.0326L9.42075 11.0311L9.42165 11.0293L9.42232 11.027C9.46687 11.0198 9.51165 11.0122 9.55733 11.0041C10.0084 10.9152 10.4526 10.7941 10.8864 10.6418C11.6055 10.39 12.2929 10.0554 12.9346 9.64463C12.9346 9.64463 10.8972 11.9977 10.8871 15.4195V15.4323L10.8869 15.4393V15.4454C10.8869 16.0157 10.9296 16.6522 10.9746 17.323C11.2005 20.6921 11.4842 24.9217 6.70455 25.9517C6.70455 25.9517 9.9009 24.7268 9.82935 15.617V15.6139C9.82732 15.7732 9.65767 27.2857 4.18455 25.8858C4.2019 26.0444 4.18202 26.2049 4.1265 26.3545L4.1274 26.3518L4.12853 26.3493C4.12962 26.346 4.13082 26.3427 4.13212 26.3394L7.4043 27.9544L6.82582 26.5059C7.18252 26.4294 7.53358 26.3287 7.87657 26.2044C8.3457 26.0332 8.77297 25.8215 9.15457 25.5706C9.38621 25.4193 9.60491 25.249 9.80842 25.0616C10.1619 24.7332 10.4658 24.3551 10.7107 23.9393H10.7113C10.7113 23.9393 10.2859 27.0022 11.0403 29.7488L14.3869 31.4008C14.2924 31.2208 14.2393 31.113 14.2378 31.1094C12.6889 28.1318 11.9023 25.5915 11.9 23.5591C11.8978 21.6621 12.5811 20.7436 12.9886 20.365C13.3279 20.0495 13.6696 19.9354 13.7916 20.0104C13.9473 20.106 13.405 21.4954 13.0963 22.2169L13.1072 22.2223C13.6408 21.3568 14.866 20.5346 15.4447 20.1778L15.46 20.1674C15.5927 20.0765 16.4072 19.5181 17.143 20.3429C17.5291 20.7763 17.9451 20.7565 17.966 20.7551H17.9667C17.9876 20.7565 18.4036 20.7763 18.79 20.3429C19.5248 19.5187 20.3386 20.0756 20.4723 20.1674L20.4797 20.1721L20.4826 20.1744L20.488 20.1778C21.0667 20.5346 22.2919 21.3568 22.8256 22.2223L22.8362 22.2169C22.5277 21.4956 21.9854 20.1062 22.1411 20.0104C22.2631 19.9354 22.6048 20.0495 22.9441 20.365C23.3516 20.7436 24.0349 21.6621 24.0327 23.5591C24.0302 25.5915 23.2438 28.1318 21.6949 31.1094C21.6931 31.1132 21.6315 31.2383 21.5224 31.4449L24.928 29.7641C24.929 29.7596 24.9303 29.755 24.9318 29.7506C25.6905 27.0054 25.2619 23.9458 25.2619 23.9458H25.2628C25.5098 24.3622 25.8162 24.7403 26.1722 25.0684C26.3776 25.2559 26.5981 25.4261 26.8315 25.5773C27.2162 25.8282 27.6466 26.0399 28.1198 26.2112C28.4524 26.3315 28.8059 26.4323 29.1789 26.5126L29.1794 26.5129ZM19.9233 34.0106L20.3483 33.4132C20.6522 32.9629 20.9378 32.5005 21.2044 32.0272L24.7745 30.2652C24.0937 32.269 22.6989 33.9813 19.9233 34.0106ZM33.0356 24.9804V10.7334C34.1327 12.9593 34.7492 15.4645 34.7492 18.1134C34.7492 20.5855 34.2124 22.9322 33.2489 25.0443C33.1801 25.0152 33.1084 24.9938 33.035 24.9804H33.0356ZM32.6547 24.9806C32.4863 25.0118 32.3283 25.0845 32.195 25.1921C29.696 22.8757 29.1479 19.3363 28.8695 16.5949L32.4983 10.6272C32.5487 10.6452 32.6011 10.6591 32.6547 10.669V24.9806ZM14.7956 1.68862C10.2652 2.565 6.38595 5.26545 3.95482 8.99415C3.96675 9.009 3.978 9.02385 3.98925 9.03915L12.6256 4.88475L14.7956 1.68817V1.68862ZM2.75063 25.0441C1.78762 22.9322 1.25055 20.5855 1.25055 18.1134C1.25055 15.4645 1.86705 12.9593 2.96415 10.7332V24.9802H2.96482C2.89138 24.9936 2.8194 25.015 2.75063 25.0441ZM3.50167 10.6267L7.13025 16.5946H7.13002C6.8517 19.3363 6.3036 22.876 3.80452 25.1924C3.67134 25.0848 3.51343 25.0121 3.34507 24.9808V10.669C3.39907 10.6591 3.45127 10.645 3.50167 10.6267ZM32.0524 26.6625C32.1176 26.7399 32.1939 26.8078 32.2787 26.8636H32.2792C30.9134 29.0811 29.0517 30.9513 26.8405 32.3271L26.84 32.3269L26.8398 32.3264L26.8396 32.3262L26.8393 32.326L28.3869 28.4823L32.0587 26.6701L32.0584 26.6697L32.058 26.6695L32.0573 26.6686C32.0569 26.6681 32.0565 26.6676 32.0562 26.667L32.0557 26.6665L32.0524 26.6625ZM3.94177 26.6699L7.61602 28.4832L9.14827 32.3192L9.14783 32.3194C6.94193 30.9444 5.0846 29.077 3.7215 26.8636C3.80618 26.8081 3.88229 26.7405 3.9474 26.6629L3.9438 26.6675L3.9429 26.6683L3.94177 26.6699ZM17.9698 21.7638C17.9694 21.764 17.9689 21.7642 17.9685 21.7645L17.9676 21.7651L17.968 21.7649L17.9685 21.7645L17.9692 21.764L17.9698 21.7638ZM16.0085 34.0038C15.8624 33.8105 15.7212 33.6135 15.5853 33.4129C15.2717 32.9482 14.9775 32.4706 14.7033 31.9815L11.1924 30.2488C11.8667 32.2567 13.2507 33.9743 16.0085 34.0038Z" fill="var(--fill-0, black)"/>
</g>
</svg>
